<svg width="60" height="60" viewBox="0 0 60 60" fill="none" xmlns="http://www.w3.org/2000/svg">
<g id="cutlery 2">
<g id="cutlery 2_2">
<g id="Group">
<path id="Vector" d="M17.4375 56.25C16.2938 56.25 15.1968 55.7956 14.3881 54.9869C13.5793 54.1781 13.125 53.0812 13.125 51.9375L15 28.5H20.0625L21.9375 51.9375C21.938 52.52 21.8206 53.0965 21.5923 53.6323C21.3639 54.1681 21.0294 54.6522 20.6088 55.0552C20.1883 55.4582 19.6905 55.7718 19.1455 55.9771C18.6004 56.1825 18.0194 56.2753 17.4375 56.25Z" stroke="#30535A" stroke-width="2.5" stroke-linecap="round" stroke-linejoin="round"/>
<path id="Vector_2" d="M17.4375 28.5C22.9258 28.5 27.375 22.9595 27.375 16.125C27.375 9.29049 22.9258 3.75 17.4375 3.75C11.9492 3.75 7.5 9.29049 7.5 16.125C7.5 22.9595 11.9492 28.5 17.4375 28.5Z" stroke="#30535A" stroke-width="2.5" stroke-linecap="round" stroke-linejoin="round"/>
</g>
<g id="Group_2">
<path id="Vector_3" d="M43.5 56.25C42.3563 56.25 41.2594 55.7956 40.4506 54.9869C39.6419 54.1781 39.1876 53.0812 39.1876 51.9375L41.0626 28.5H46.125L48 51.9375C48.0006 52.52 47.8832 53.0965 47.6548 53.6323C47.4265 54.1681 47.0919 54.6522 46.6714 55.0552C46.2508 55.4582 45.7531 55.7718 45.208 55.9771C44.663 56.1825 44.0819 56.2753 43.5 56.25Z" stroke="#30535A" stroke-width="2.5" stroke-linecap="round" stroke-linejoin="round"/>
<path id="Vector_4" d="M51.9375 20.0625C51.8885 22.3173 50.9582 24.4633 49.3459 26.0404C47.7337 27.6176 45.5679 28.5005 43.3125 28.5C41.0747 28.5 38.9286 27.611 37.3463 26.0287C35.764 24.4464 34.875 22.3003 34.875 20.0625H51.9375Z" stroke="#30535A" stroke-width="2.5" stroke-linecap="round" stroke-linejoin="round"/>
<path id="Vector_5" d="M34.875 4.5V20.0625" stroke="#30535A" stroke-width="2.5" stroke-linecap="round" stroke-linejoin="round"/>
<path id="Vector_6" d="M43.3125 4.5V19.6875" stroke="#30535A" stroke-width="2.5" stroke-linecap="round" stroke-linejoin="round"/>
<path id="Vector_7" d="M51.9375 4.5V20.0625" stroke="#30535A" stroke-width="2.5" stroke-linecap="round" stroke-linejoin="round"/>
</g>
</g>
</g>
</svg>
