<svg width="60" height="60" viewBox="0 0 60 60" fill="none" xmlns="http://www.w3.org/2000/svg">
<g id="strawberry">
<g id="strawberry_2">
<path id="Vector" d="M42.7528 18.75L46.3153 10.6875L36.3779 14.25L30.5653 5.625L24.5654 14.25L14.8153 10.6875L18.3778 18.75" stroke="#30535A" stroke-width="2.5" stroke-linecap="round" stroke-linejoin="round"/>
<g id="Group">
<path id="Vector_2" d="M30.3778 30.75V33.3749" stroke="#30535A" stroke-width="2.5" stroke-linecap="round" stroke-linejoin="round"/>
<g id="Group_2">
<g id="Group_3">
<path id="Vector_3" d="M20.8154 28.5V31.3125" stroke="#30535A" stroke-width="2.5" stroke-linecap="round" stroke-linejoin="round"/>
<path id="Vector_4" d="M39.9403 28.5V31.3125" stroke="#30535A" stroke-width="2.5" stroke-linecap="round" stroke-linejoin="round"/>
</g>
<g id="Group_4">
<path id="Vector_5" d="M35.2528 38.25V41.0625" stroke="#30535A" stroke-width="2.5" stroke-linecap="round" stroke-linejoin="round"/>
<path id="Vector_6" d="M25.3154 38.25V41.0625" stroke="#30535A" stroke-width="2.5" stroke-linecap="round" stroke-linejoin="round"/>
</g>
</g>
</g>
<path id="Vector_7" d="M26.0653 53.25C26.6105 53.9169 27.297 54.4542 28.0753 54.8232C28.8535 55.1921 29.704 55.3835 30.5653 55.3835C31.4266 55.3835 32.2771 55.1921 33.0554 54.8232C33.8336 54.4542 34.5202 53.9169 35.0653 53.25L45.9403 40.875C48.4668 37.9588 49.8638 34.2334 49.8779 30.375C49.9027 28.873 49.6314 27.3808 49.0794 25.9836C48.5274 24.5864 47.7056 23.3116 46.6609 22.2321C45.6162 21.1526 44.3691 20.2894 42.9907 19.692C41.6124 19.0945 40.1299 18.7744 38.6279 18.75H22.5028C21.0008 18.7744 19.5182 19.0945 18.1399 19.692C16.7616 20.2894 15.5145 21.1526 14.4698 22.2321C13.4251 23.3116 12.6033 24.5864 12.0513 25.9836C11.4993 27.3808 11.228 28.873 11.2528 30.375C11.1778 34.2492 12.5865 38.0054 15.1904 40.875L26.0653 53.25Z" stroke="#30535A" stroke-width="2.5" stroke-linecap="round" stroke-linejoin="round"/>
</g>
</g>
</svg>
