<svg width="60" height="60" viewBox="0 0 60 60" fill="none" xmlns="http://www.w3.org/2000/svg">
<path d="M31.3922 22.5L39.4547 14.4375C38.5031 13.4951 37.9638 12.2142 37.9547 10.875C38.0014 9.49748 38.5695 8.18912 39.5441 7.2145C40.5188 6.23988 41.8271 5.67174 43.2047 5.625C44.5643 5.67359 45.852 6.24811 46.7963 7.22746C47.7407 8.20681 48.268 9.5145 48.2672 10.875C49.1497 10.8268 50.0301 11.0021 50.8268 11.3848C51.6235 11.7675 52.3107 12.3451 52.8247 13.0641C53.3387 13.7831 53.6628 14.6203 53.7671 15.4979C53.8713 16.3756 53.7523 17.2654 53.421 18.0848C53.0898 18.9042 52.557 19.6268 51.8721 20.1854C51.1872 20.7441 50.3724 21.1208 49.5031 21.2806C48.6339 21.4405 47.7383 21.3783 46.8995 21.0998C46.0607 20.8213 45.3057 20.3355 44.7047 19.6875L36.6422 27.9375" stroke="#30535A" stroke-width="2.5" stroke-linecap="round" stroke-linejoin="round"/>
<path d="M34.0172 39C34.1454 42.2695 33.1295 45.4813 31.1445 48.0823C29.1594 50.6834 26.3296 52.5109 23.1422 53.25C20.9264 53.7719 18.6178 53.7554 16.4096 53.2018C14.2015 52.6482 12.1582 51.5737 10.4507 50.0681C8.74319 48.5626 7.42124 46.6699 6.59551 44.5485C5.76977 42.4271 5.4643 40.1387 5.70466 37.875C6.02938 34.4094 7.62783 31.1875 10.1908 28.8323C12.7537 26.4772 16.0991 25.1562 19.5797 25.125C22.3079 24.9881 24.8704 23.7743 26.7047 21.75L28.7672 19.875L38.7047 29.8125L37.3922 31.3125C36.331 32.2928 35.4836 33.4815 34.9029 34.8042C34.3221 36.127 34.0206 37.5554 34.0172 39Z" stroke="#30535A" stroke-width="2.5" stroke-linecap="round" stroke-linejoin="round"/>
</svg>
