<svg width="60" height="60" viewBox="0 0 60 60" fill="none" xmlns="http://www.w3.org/2000/svg">
<g id="cookie 1">
<g id="cookie 1_2">
<path id="Vector" d="M25.125 55.7954C36.9301 55.7954 46.5 46.2255 46.5 34.4204C46.5 22.6153 36.9301 13.0454 25.125 13.0454C13.3199 13.0454 3.75 22.6153 3.75 34.4204C3.75 46.2255 13.3199 55.7954 25.125 55.7954Z" stroke="#30535A" stroke-width="2.5" stroke-linecap="round" stroke-linejoin="round"/>
<path id="Vector_2" d="M31.875 7.98271C34.5852 5.27253 38.261 3.75 42.0938 3.75C45.9265 3.75 49.6023 5.27253 52.3125 7.98271C55.0227 10.6929 56.5452 14.3687 56.5452 18.2015C56.5452 22.0343 55.0227 25.71 52.3125 28.4202" stroke="#30535A" stroke-width="2.5" stroke-linecap="round" stroke-linejoin="round"/>
<path id="Vector_3" d="M43.5 15.6704C44.9497 15.6704 46.125 14.4951 46.125 13.0454C46.125 11.5957 44.9497 10.4204 43.5 10.4204C42.0503 10.4204 40.875 11.5957 40.875 13.0454C40.875 14.4951 42.0503 15.6704 43.5 15.6704Z" fill="#30535A"/>
<path id="Vector_4" d="M25.125 38.3579C26.5747 38.3579 27.75 37.1827 27.75 35.733C27.75 34.2832 26.5747 33.1079 25.125 33.1079C23.6753 33.1079 22.5 34.2832 22.5 35.733C22.5 37.1827 23.6753 38.3579 25.125 38.3579Z" fill="#30535A"/>
<path id="Vector_5" d="M27.75 25.9829C29.1997 25.9829 30.375 24.8076 30.375 23.3579C30.375 21.9082 29.1997 20.7329 27.75 20.7329C26.3003 20.7329 25.125 21.9082 25.125 23.3579C25.125 24.8076 26.3003 25.9829 27.75 25.9829Z" fill="#30535A"/>
<path id="Vector_6" d="M36.9375 40.9829C38.3872 40.9829 39.5625 39.8076 39.5625 38.3579C39.5625 36.9082 38.3872 35.7329 36.9375 35.7329C35.4878 35.7329 34.3125 36.9082 34.3125 38.3579C34.3125 39.8076 35.4878 40.9829 36.9375 40.9829Z" fill="#30535A"/>
<path id="Vector_7" d="M19.125 48.4829C20.5747 48.4829 21.75 47.3076 21.75 45.8579C21.75 44.4082 20.5747 43.2329 19.125 43.2329C17.6753 43.2329 16.5 44.4082 16.5 45.8579C16.5 47.3076 17.6753 48.4829 19.125 48.4829Z" fill="#30535A"/>
<path id="Vector_8" d="M15 32.3579C16.4497 32.3579 17.625 31.1826 17.625 29.7329C17.625 28.2832 16.4497 27.1079 15 27.1079C13.5503 27.1079 12.375 28.2832 12.375 29.7329C12.375 31.1826 13.5503 32.3579 15 32.3579Z" fill="#30535A"/>
</g>
</g>
</svg>
