<svg width="60" height="60" viewBox="0 0 60 60" fill="none" xmlns="http://www.w3.org/2000/svg">
<g id="broccoli">
<g id="broccoli_2">
<path id="Vector" d="M55.6882 23.1687C55.6882 25.9535 54.582 28.6242 52.6128 30.5934C50.6437 32.5625 47.9729 33.6687 45.1881 33.6687C42.6301 33.6845 40.1576 32.7489 38.2507 31.0437C37.0651 33.2636 35.2827 35.1078 33.1046 36.3684C30.9265 37.6289 28.4394 38.2556 25.9241 38.1776C23.4087 38.0996 20.9652 37.3201 18.8694 35.927C16.7736 34.5339 15.1089 32.5828 14.0632 30.2937C13.0318 31.0506 11.7796 31.446 10.5006 31.4187C9.61421 31.4187 8.73648 31.2442 7.91753 30.9049C7.09858 30.5657 6.3545 30.0685 5.7277 29.4417C5.1009 28.8149 4.60368 28.0708 4.26446 27.2519C3.92524 26.4329 3.75068 25.5552 3.75068 24.6687C3.73162 23.3412 4.11569 22.039 4.85217 20.9343C5.58865 19.8296 6.64286 18.9743 7.87564 18.4812C7.55659 17.4507 7.42951 16.3702 7.50068 15.2937C7.51722 12.9272 8.25559 10.6221 9.6172 8.68652C10.9788 6.75089 12.8988 5.27694 15.1205 4.46164C17.3422 3.64634 19.7597 3.52853 22.0502 4.12396C24.3406 4.71938 26.3948 5.99968 27.9382 7.79375C30.1178 6.20909 32.7434 5.35575 35.4382 5.35624C37.7978 5.35493 40.102 6.07173 42.0445 7.41139C43.987 8.75105 45.4759 10.6501 46.3132 12.8562C48.8826 13.0908 51.2708 14.28 53.0064 16.1891C54.742 18.0982 55.6989 20.5886 55.6882 23.1687Z" stroke="#30535A" stroke-width="2.5" stroke-linecap="round" stroke-linejoin="round"/>
<path id="Vector_2" d="M45.1881 33.6689C45.1881 33.6689 36.0006 35.3564 36.0006 56.1689H26.4381C26.4381 56.1689 27.0007 41.7314 17.6257 34.7939" stroke="#30535A" stroke-width="2.5" stroke-linecap="round" stroke-linejoin="round"/>
</g>
</g>
</svg>
